<svg width="35" height="35" viewBox="0 0 35 35" fill="none" xmlns="http://www.w3.org/2000/svg">
<path d="M19.6875 6.09583C19.285 6.09583 18.9584 5.76917 18.9584 5.36667V2.91667C18.9584 2.11313 18.3036 1.45833 17.5 1.45833C16.6965 1.45833 16.0417 2.11313 16.0417 2.91667V5.36667C16.0417 5.76917 15.715 6.09583 15.3125 6.09583C14.91 6.09583 14.5834 5.77063 14.5834 5.36667V2.91667C14.5834 1.30813 15.8915 0 17.5 0C19.1086 0 20.4167 1.30813 20.4167 2.91667V5.36667C20.4167 5.77063 20.09 6.09583 19.6875 6.09583Z" fill="white"/>
<path d="M17.5 35C14.6855 35 12.3959 32.7104 12.3959 29.8958C12.3959 29.4933 12.7225 29.1667 13.125 29.1667C13.5275 29.1667 13.8542 29.4933 13.8542 29.8958C13.8542 31.9054 15.4905 33.5417 17.5 33.5417C19.5096 33.5417 21.1459 31.9054 21.1459 29.8958C21.1459 29.4933 21.4725 29.1667 21.875 29.1667C22.2775 29.1667 22.6042 29.4933 22.6042 29.8958C22.6042 32.7104 20.3146 35 17.5 35Z" fill="white"/>
<path d="M29.8959 30.625H5.10419C3.89815 30.625 2.91669 29.6435 2.91669 28.4375C2.91669 27.7973 3.19523 27.1921 3.68231 26.775C5.98065 24.8325 7.29169 22.0063 7.29169 19.0138V14.5833C7.29169 8.95417 11.8709 4.375 17.5 4.375C23.1292 4.375 27.7084 8.95417 27.7084 14.5833V19.0138C27.7084 22.0077 29.0194 24.8325 31.3061 26.7648C31.8048 27.1921 32.0834 27.7973 32.0834 28.4375C32.0834 29.6435 31.1034 30.625 29.8959 30.625ZM17.5 5.83333C12.6744 5.83333 8.75002 9.75771 8.75002 14.5833V19.0138C8.75002 22.4379 7.25085 25.6681 4.63606 27.879C4.46835 28.0219 4.37502 28.2246 4.37502 28.4375C4.37502 28.84 4.70169 29.1667 5.10419 29.1667H29.8959C30.2984 29.1667 30.625 28.84 30.625 28.4375C30.625 28.2246 30.5317 28.0219 30.3698 27.8833C27.7506 25.6681 26.25 22.4365 26.25 19.0138V14.5833C26.25 9.75771 22.3256 5.83333 17.5 5.83333Z" fill="white"/>
</svg>
