<svg width="35" height="35" viewBox="0 0 35 35" fill="none" xmlns="http://www.w3.org/2000/svg">
<path d="M19.6874 6.09583C19.2849 6.09583 18.9582 5.76917 18.9582 5.36667V2.91667C18.9582 2.11313 18.3035 1.45833 17.4999 1.45833C16.6964 1.45833 16.0416 2.11313 16.0416 2.91667V5.36667C16.0416 5.76917 15.7149 6.09583 15.3124 6.09583C14.9099 6.09583 14.5833 5.77063 14.5833 5.36667V2.91667C14.5833 1.30813 15.8914 0 17.4999 0C19.1085 0 20.4166 1.30813 20.4166 2.91667V5.36667C20.4166 5.77063 20.0899 6.09583 19.6874 6.09583Z" fill="#8996C6"/>
<path d="M17.4999 35C14.6853 35 12.3958 32.7104 12.3958 29.8958C12.3958 29.4933 12.7224 29.1667 13.1249 29.1667C13.5274 29.1667 13.8541 29.4933 13.8541 29.8958C13.8541 31.9054 15.4903 33.5417 17.4999 33.5417C19.5095 33.5417 21.1458 31.9054 21.1458 29.8958C21.1458 29.4933 21.4724 29.1667 21.8749 29.1667C22.2774 29.1667 22.6041 29.4933 22.6041 29.8958C22.6041 32.7104 20.3145 35 17.4999 35Z" fill="#8996C6"/>
<path d="M29.8958 30.625H5.10413C3.89808 30.625 2.91663 29.6435 2.91663 28.4375C2.91663 27.7973 3.19517 27.1921 3.68225 26.775C5.98058 24.8325 7.29163 22.0063 7.29163 19.0138V14.5833C7.29163 8.95417 11.8708 4.375 17.5 4.375C23.1291 4.375 27.7083 8.95417 27.7083 14.5833V19.0138C27.7083 22.0077 29.0193 24.8325 31.306 26.7648C31.8048 27.1921 32.0833 27.7973 32.0833 28.4375C32.0833 29.6435 31.1033 30.625 29.8958 30.625ZM17.5 5.83333C12.6743 5.83333 8.74996 9.75771 8.74996 14.5833V19.0138C8.74996 22.4379 7.25079 25.6681 4.636 27.879C4.46829 28.0219 4.37496 28.2246 4.37496 28.4375C4.37496 28.84 4.70163 29.1667 5.10413 29.1667H29.8958C30.2983 29.1667 30.625 28.84 30.625 28.4375C30.625 28.2246 30.5316 28.0219 30.3698 27.8833C27.7506 25.6681 26.25 22.4365 26.25 19.0138V14.5833C26.25 9.75771 22.3256 5.83333 17.5 5.83333Z" fill="#8996C6"/>
</svg>
