<svg width="25" height="25" viewBox="0 0 25 25" fill="none" xmlns="http://www.w3.org/2000/svg">
<path fill-rule="evenodd" clip-rule="evenodd" d="M2.57188 10.3844C2.64445 10.3116 2.73066 10.2539 2.82557 10.2145C2.92049 10.1751 3.02224 10.1549 3.125 10.1549C3.22776 10.1549 3.32951 10.1751 3.42443 10.2145C3.51934 10.2539 3.60555 10.3116 3.67813 10.3844L12.5 19.2078L21.3219 10.3844C21.4686 10.2377 21.6675 10.1553 21.875 10.1553C22.0825 10.1553 22.2814 10.2377 22.4281 10.3844C22.5748 10.5311 22.6572 10.73 22.6572 10.9375C22.6572 11.145 22.5748 11.3439 22.4281 11.4906L13.0531 20.8656C12.9806 20.9384 12.8943 20.9961 12.7994 21.0355C12.7045 21.0749 12.6028 21.0951 12.5 21.0951C12.3972 21.0951 12.2955 21.0749 12.2006 21.0355C12.1057 20.9961 12.0194 20.9384 11.9469 20.8656L2.57188 11.4906C2.49912 11.4181 2.4414 11.3318 2.40201 11.2369C2.36263 11.142 2.34235 11.0403 2.34235 10.9375C2.34235 10.8347 2.36263 10.733 2.40201 10.6381C2.4414 10.5432 2.49912 10.4569 2.57188 10.3844V10.3844Z" fill="#4357A2"/>
<path fill-rule="evenodd" clip-rule="evenodd" d="M2.57188 4.13438C2.64445 4.06162 2.73066 4.0039 2.82557 3.96451C2.92049 3.92513 3.02224 3.90485 3.125 3.90485C3.22776 3.90485 3.32951 3.92513 3.42443 3.96451C3.51934 4.0039 3.60555 4.06162 3.67813 4.13438L12.5 12.9578L21.3219 4.13438C21.3945 4.06174 21.4807 4.00412 21.5757 3.96481C21.6706 3.9255 21.7723 3.90526 21.875 3.90526C21.9777 3.90526 22.0794 3.9255 22.1743 3.96481C22.2693 4.00412 22.3555 4.06174 22.4281 4.13438C22.5008 4.20701 22.5584 4.29325 22.5977 4.38815C22.637 4.48306 22.6572 4.58478 22.6572 4.6875C22.6572 4.79023 22.637 4.89194 22.5977 4.98685C22.5584 5.08175 22.5008 5.16799 22.4281 5.24063L13.0531 14.6156C12.9806 14.6884 12.8943 14.7461 12.7994 14.7855C12.7045 14.8249 12.6028 14.8451 12.5 14.8451C12.3972 14.8451 12.2955 14.8249 12.2006 14.7855C12.1057 14.7461 12.0194 14.6884 11.9469 14.6156L2.57188 5.24063C2.49912 5.16805 2.4414 5.08184 2.40201 4.98693C2.36263 4.89201 2.34235 4.79026 2.34235 4.6875C2.34235 4.58474 2.36263 4.48299 2.40201 4.38807C2.4414 4.29316 2.49912 4.20695 2.57188 4.13438V4.13438Z" fill="#4357A2"/>
</svg>
