<svg width="32" height="32" viewBox="0 0 32 32" fill="none" xmlns="http://www.w3.org/2000/svg">
<path d="M18.8126 9.4375H13.1876V13.1874H9.43762V18.8125H13.1876V22.5625H18.8126V18.8125H22.5626V13.1874H18.8126V9.4375ZM20.6876 15.0624V16.9375H16.9376V20.6875H15.0626V16.9375H11.3126V15.0624H15.0626V11.3125H16.9376V15.0624H20.6876Z" fill="#8996C6"/>
<path d="M27.3137 4.68625C24.2917 1.66425 20.2738 0 16 0C11.7262 0 7.70825 1.66425 4.68625 4.68625C1.66425 7.70825 0 11.7262 0 16C0 18.2838 0.4715 20.4899 1.4015 22.5569C2.18256 24.2931 3.25044 25.8542 4.58175 27.2079L0.9575 32H16C20.2738 32 24.2917 30.3357 27.3137 27.3137C30.3357 24.2917 32 20.2738 32 16C32 11.7262 30.3357 7.70825 27.3137 4.68625ZM16 30.125H4.72644L7.09319 26.9957L6.46387 26.4194C3.54756 23.7487 1.875 19.951 1.875 16C1.875 8.21144 8.21144 1.875 16 1.875C23.7886 1.875 30.125 8.21144 30.125 16C30.125 23.7886 23.7886 30.125 16 30.125Z" fill="#8996C6"/>
</svg>
