<svg width="36" height="36" viewBox="0 0 36 36" fill="none" xmlns="http://www.w3.org/2000/svg">
<path d="M35.0519 17.6777C35.052 17.3847 34.8772 17.1198 34.6081 17.0045L11.3095 7.01931C11.0429 6.90506 10.7341 6.95889 10.5218 7.15656C10.3095 7.35422 10.234 7.65851 10.329 7.93251L13.7087 17.6776L10.329 27.4228C10.2368 27.6886 10.3051 27.9828 10.5029 28.1806C10.5091 28.1867 10.5154 28.1928 10.5218 28.1988C10.734 28.3964 11.0429 28.4503 11.3094 28.336L34.608 18.3509C34.8773 18.2354 35.0519 17.9707 35.0519 17.6777ZM12.2562 9.01875L30.7512 16.9453L15.0051 16.9452L12.2562 9.01875ZM12.2561 26.3366L15.0052 18.41L30.7513 18.4101L12.2561 26.3366Z" fill="white"/>
</svg>
