<svg width="30" height="30" viewBox="0 0 35 35" fill="none" xmlns="http://www.w3.org/2000/svg">
<path d="M33.9746 18.6621L22.4902 30.1465C21.4648 31.1719 19.6875 30.4541 19.6875 28.9844V22.4219H10.3906C9.48145 22.4219 8.75 21.6904 8.75 20.7812V14.2187C8.75 13.3096 9.48145 12.5781 10.3906 12.5781H19.6875V6.01561C19.6875 4.55272 21.458 3.82811 22.4902 4.8535L33.9746 16.3379C34.6104 16.9805 34.6104 18.0195 33.9746 18.6621ZM13.125 29.8047V27.0703C13.125 26.6191 12.7559 26.25 12.3047 26.25H6.5625C5.35254 26.25 4.375 25.2725 4.375 24.0625V10.9375C4.375 9.72753 5.35254 8.74999 6.5625 8.74999H12.3047C12.7559 8.74999 13.125 8.38085 13.125 7.92968V5.1953C13.125 4.74413 12.7559 4.37499 12.3047 4.37499H6.5625C2.93945 4.37499 0 7.31444 0 10.9375V24.0625C0 27.6855 2.93945 30.625 6.5625 30.625H12.3047C12.7559 30.625 13.125 30.2558 13.125 29.8047Z" fill="white"/>
</svg>
